<svg xmlns="http://www.w3.org/2000/svg" viewBox="0 0 22.82 18.84"><defs><style>.a9ac5914-744f-47e5-b35b-728b23a2ef59,.b083f118-b293-4aa1-8f68-c28c9adf1d35,.b1de942a-438d-439c-a50a-5f6fdb1ae980{isolation:isolate;}.a56059bc-2b25-4178-b62c-a0ef6319d96d,.b083f118-b293-4aa1-8f68-c28c9adf1d35{opacity:0.8;}.a56059bc-2b25-4178-b62c-a0ef6319d96d,.a9ac5914-744f-47e5-b35b-728b23a2ef59,.b083f118-b293-4aa1-8f68-c28c9adf1d35,.ec6512a5-1bb0-4d93-8bb4-9da9f3e9fa07{mix-blend-mode:multiply;}.a9ac5914-744f-47e5-b35b-728b23a2ef59{opacity:0.4;}.a2f282c2-a3e3-4cfc-af24-6defae12fc3a{fill:gray;}</style></defs><title>Mesa de trabajo 5</title><g id="a0216e63-2940-491e-be17-a6c0a495a36c" data-name="pack 1" class="b1de942a-438d-439c-a50a-5f6fdb1ae980"><g id="b17131c6-790c-4c7e-b2b8-066abe5e2adc" data-name="pack" class="b1de942a-438d-439c-a50a-5f6fdb1ae980"><g id="b12923a6-de21-4cfc-b782-183df041e211" data-name="menu" class="b1de942a-438d-439c-a50a-5f6fdb1ae980"><g id="fd10c2c3-93bd-4475-8f8e-9f5231a2bca7" data-name="redes" class="b1de942a-438d-439c-a50a-5f6fdb1ae980"><g id="ba4f5b56-47ff-409c-93fb-bf9de3ba4701" data-name="Layer 96"><path class="a2f282c2-a3e3-4cfc-af24-6defae12fc3a" d="M16.51,2.9H5.72A1.36,1.36,0,0,0,4.36,4.26V15.05A1.36,1.36,0,0,0,5.72,16.4H16.51a1.35,1.35,0,0,0,1.35-1.35V4.26A1.35,1.35,0,0,0,16.51,2.9ZM11.11,7a2.7,2.7,0,1,1-2.7,2.7A2.71,2.71,0,0,1,11.11,7Zm5.4,7.76a.32.32,0,0,1-.34.34H6.05a.32.32,0,0,1-.33-.34V9H7.13a2.19,2.19,0,0,0-.07.67,4.05,4.05,0,1,0,8.1,0A2.19,2.19,0,0,0,15.09,9h1.42Zm0-8.77a.32.32,0,0,1-.34.34H14.82a.32.32,0,0,1-.33-.34V4.59a.31.31,0,0,1,.33-.33h1.35a.31.31,0,0,1,.34.33Z"/></g></g></g></g></g></svg>