<svg xmlns="http://www.w3.org/2000/svg" viewBox="0 0 21.71 20.25"><defs><style>.bc42a3b4-76c9-41fb-ac2a-fb834ec8f4a8,.eb6d932f-0eae-4ece-a3e5-dfad0ca8febe,.fe1bc563-8987-4e26-bc09-0478669084c8{isolation:isolate;}.bc42a3b4-76c9-41fb-ac2a-fb834ec8f4a8,.f8fa1894-4efc-4566-bb61-861d4cf90e3a{opacity:0.8;}.a7430f59-38e1-4c9b-97c2-4d2067bf0094,.bc42a3b4-76c9-41fb-ac2a-fb834ec8f4a8,.eb6d932f-0eae-4ece-a3e5-dfad0ca8febe,.f8fa1894-4efc-4566-bb61-861d4cf90e3a{mix-blend-mode:multiply;}.eb6d932f-0eae-4ece-a3e5-dfad0ca8febe{opacity:0.4;}.bb50bd0c-01e1-4801-87fa-2ac46e214889{fill:gray;}</style></defs><title>Mesa de trabajo 3</title><g id="ad3611c8-4093-4c2d-85f1-96cb6b46582b" data-name="pack 1" class="fe1bc563-8987-4e26-bc09-0478669084c8"><g id="b9694966-ba7b-4720-8594-34095314b3c3" data-name="pack" class="fe1bc563-8987-4e26-bc09-0478669084c8"><g id="afcd90aa-99cc-4130-9a0e-c51072c3d24e" data-name="menu" class="fe1bc563-8987-4e26-bc09-0478669084c8"><g id="fc170582-36e3-4358-b6e0-331a27ecf67c" data-name="redes" class="fe1bc563-8987-4e26-bc09-0478669084c8"><g id="f51ac4c1-8054-40a1-b191-932d15e1d80a" data-name="Layer 95"><path class="bb50bd0c-01e1-4801-87fa-2ac46e214889" d="M19.5,4.35a6.55,6.55,0,0,1-1.94.53A3.37,3.37,0,0,0,19.05,3a7.26,7.26,0,0,1-2.15.82,3.37,3.37,0,0,0-5.83,2.3,3.25,3.25,0,0,0,.09.77A9.57,9.57,0,0,1,4.21,3.39a3.37,3.37,0,0,0,1,4.5,3.46,3.46,0,0,1-1.53-.42v0a3.39,3.39,0,0,0,2.71,3.31,3.68,3.68,0,0,1-.89.12,4.21,4.21,0,0,1-.63-.06,3.39,3.39,0,0,0,3.15,2.34,6.81,6.81,0,0,1-4.19,1.44,7.34,7.34,0,0,1-.81-.05A9.59,9.59,0,0,0,17.83,6.53c0-.14,0-.29,0-.43A6.82,6.82,0,0,0,19.5,4.35Z"/></g></g></g></g></g></svg>