<svg xmlns="http://www.w3.org/2000/svg" viewBox="0 0 22.43 22.28"><defs><style>.b0e65b82-45bb-4727-9b75-d02715f1ad53,.bd985d71-d5dd-493f-a4be-5c047e3e299f,.f021a20c-dff4-4c03-b9f6-c126c5deff8e{isolation:isolate;}.b6ae6df6-e29c-4a4c-b7dc-eb38097f145a,.bd985d71-d5dd-493f-a4be-5c047e3e299f{opacity:0.8;}.b6ae6df6-e29c-4a4c-b7dc-eb38097f145a,.bd985d71-d5dd-493f-a4be-5c047e3e299f,.ebed4a47-837c-4a60-b266-e7b0393dd27c,.f021a20c-dff4-4c03-b9f6-c126c5deff8e{mix-blend-mode:multiply;}.f021a20c-dff4-4c03-b9f6-c126c5deff8e{opacity:0.4;}.b678c65b-d946-47b7-9eb5-fa2b8bdca57a{fill:gray;}</style></defs><title>Mesa de trabajo 4</title><g id="b04a5712-e517-4694-8eaa-36033c9c6579" data-name="pack 1" class="b0e65b82-45bb-4727-9b75-d02715f1ad53"><g id="be6f5adc-9f6c-4e7c-8843-59347ef1a36c" data-name="pack" class="b0e65b82-45bb-4727-9b75-d02715f1ad53"><g id="a6e7df70-dfc4-4eec-867b-7dc02d522d05" data-name="menu" class="b0e65b82-45bb-4727-9b75-d02715f1ad53"><g id="a029e3f7-ba03-4b79-acb2-eb2e5ebdb76a" data-name="redes" class="b0e65b82-45bb-4727-9b75-d02715f1ad53"><g id="e9335638-531c-42dd-ae6d-3c5e65200618" data-name="Layer 98"><path class="b678c65b-d946-47b7-9eb5-fa2b8bdca57a" d="M4.7,18H7.77V8.78H4.7ZM6.25,4.33a1.6,1.6,0,1,0,0,3.19h0a1.6,1.6,0,1,0,0-3.19Zm9.06,4.23a3.06,3.06,0,0,0-2.77,1.53v0h0l0,0V8.78H9.47c0,.87,0,9.24,0,9.24h3.07V12.86a2.13,2.13,0,0,1,.1-.75A1.68,1.68,0,0,1,14.22,11c1.11,0,1.55.85,1.55,2.09V18h3.08v-5.3C18.85,9.89,17.33,8.56,15.31,8.56Z"/></g></g></g></g></g></svg>