<svg id="final" xmlns="http://www.w3.org/2000/svg" width="215.344" height="79.938" viewBox="0 0 215.344 79.938">
  <defs>
    <style>
      .cls-1 {
        fill: #ffe1af;
      }

      .cls-1, .cls-2, .cls-3, .cls-4, .cls-5, .cls-6, .cls-7, .cls-8, .cls-9 {
        fill-rule: evenodd;
      }

      .cls-2 {
        fill: #c40d00;
      }

      .cls-3 {
        fill: #fff;
      }

      .cls-4 {
        fill: #275500;
      }

      .cls-5 {
        fill: #230b00;
      }

      .cls-6 {
        fill: #3f8703;
      }

      .cls-7 {
        fill: #ffefd3;
      }

      .cls-8 {
        fill: #d9c5a3;
      }

      .cls-9 {
        fill: #a9b5b9;
      }
    </style>
  </defs>
  <g id="Capa_84" data-name="Capa 84">
    <path id="Capa_67" data-name="Capa 67" class="cls-1" d="M433.676,64.278s-1.311,21.331-19.65,21.331c0,0-17.349,3.219-21.654-21.215a8.858,8.858,0,0,0,3.9,1.63c2.094,0.232,33.392,0,33.392,0A5.354,5.354,0,0,0,433.676,64.278Z" transform="translate(-360 -19)"/>
    <path id="Capa_68" data-name="Capa 68" class="cls-2" d="M436.475,58.961h4.6s2.7-.069,4.038-1.286c2.643,6.5-.806,40.051-32.138,40.111,0,0-34.848-.3-31.442-40a6.8,6.8,0,0,0,3.514,1.17,47.833,47.833,0,0,0,4.841.255s0.369,4.012,2.488,5.062c0,0-.908,19.146,20.6,21.471,0,0,17.631.941,20.7-20.591A11.9,11.9,0,0,0,436.475,58.961Z" transform="translate(-360 -19)"/>
    <path id="Capa_69" data-name="Capa 69" class="cls-3" d="M413.055,23.571h0l6.422,14.6,5.643,8.108L420.5,56.705l-2.2,10.169H407.815l-2.2-10.169-4.624-10.431,5.643-8.108,6.421-14.6h0Z" transform="translate(-360 -19)"/>
    <path id="Capa_70" data-name="Capa 70" class="cls-4" d="M425.747,47.034s5.843-3.22,6.977-8.051c0,0-7.194-6.163-15.689-6.329A65.232,65.232,0,0,0,425.747,47.034Z" transform="translate(-360 -19)"/>
    <path id="Capa_71" data-name="Capa 71" class="cls-4" d="M393.389,38.948s3.175,6.1,7.6,8.086c0,0,6.756-9.73,8.037-14.38C409.028,32.654,400.165,33.359,393.389,38.948Z" transform="translate(-360 -19)"/>
    <path id="Capa_72" data-name="Capa 72" class="cls-5" d="M407.846,66.455h10.267s4.3,10.79,7.007,14.779c0,0-5.713,4.774-12.017,4.348S400.588,81.2,400.588,81.2,406.31,73.779,407.846,66.455Z" transform="translate(-360 -19)"/>
    <path id="Capa_73" data-name="Capa 73" class="cls-6" d="M420.347,57.3l4.773-9.275s5.384-4.828,7.6-8.141l7.844-.632S435.7,54.423,420.347,57.3Z" transform="translate(-360 -19)"/>
    <path id="Capa_74" data-name="Capa 74" class="cls-6" d="M405.7,57.3l-4.773-9.275s-5.385-4.828-7.6-8.141l-7.844-.632S390.35,54.423,405.7,57.3Z" transform="translate(-360 -19)"/>
    <path id="Capa_75" data-name="Capa 75" class="cls-7" d="M465.163,39.252s0.243,10.711-8.473,11.077c-2.434.1-5.326,0.137-8.228,0.136-0.013,1.975-1.275,7.558-3.88,7.783-3.093.267-4.889,0.6-8.271,0.714-1.332,5.747-3.595,8-17.647,6.71,0.48-1.709,2.234-6.928,1.565-7.026,6.591-2.706,13.178-8.439,13.178-8.439l7.161-10.955h24.6Z" transform="translate(-360 -19)"/>
    <path id="Capa_76" data-name="Capa 76" class="cls-7" d="M360.887,39.252s-0.244,10.711,8.472,11.077c2.435,0.1,5.326.137,8.229,0.136,0.012,1.975,1.275,7.558,3.88,7.783,3.093,0.267,4.888.6,8.271,0.714,1.331,5.747,3.594,8,17.647,6.71-0.48-1.709-2.234-6.928-1.565-7.026-6.591-2.706-13.178-8.439-13.178-8.439l-7.161-10.955h-24.6Z" transform="translate(-360 -19)"/>
    <path id="Capa_78" data-name="Capa 78" class="cls-8" d="M446.087,51.051s-1.892,5.365-5.235,5.365-15.732-.058-15.732-0.058l8.034-5.307h12.933Z" transform="translate(-360 -19)"/>
    <path id="Capa_79" data-name="Capa 79" class="cls-8" d="M380.368,51.051s1.891,5.365,5.234,5.365,15.733-.058,15.733-0.058L393.3,51.051H380.368Z" transform="translate(-360 -19)"/>
    <path id="Capa_80" data-name="Capa 80" class="cls-8" d="M419.068,64.082h11.484a5.737,5.737,0,0,0,3.636-4.525H419.963Z" transform="translate(-360 -19)"/>
    <path id="Capa_81" data-name="Capa 81" class="cls-8" d="M407.386,64.082H395.9a5.737,5.737,0,0,1-3.636-4.525h14.226Z" transform="translate(-360 -19)"/>
    <path id="Capa_82" data-name="Capa 82" class="cls-9" d="M413.055,48.5c0.731-.3,8.667-0.52,8.192-1.185,0,0-4.23,8.8-5.305,16.766h-2.887V48.5Z" transform="translate(-360 -19)"/>
    <path id="Capa_83" data-name="Capa 83" class="cls-9" d="M413.055,48.5c-0.73-.3-8.666-0.52-8.191-1.185,0,0,4.23,8.8,5.305,16.766h2.886V48.5Z" transform="translate(-360 -19)"/>
  </g>
  <path id="lineas" class="cls-5" d="M411.954,19.942a1.114,1.114,0,0,1,1.1-.946s0,0,0,0a1.115,1.115,0,0,1,1.1.947A53.253,53.253,0,0,0,417.6,31.476a33.712,33.712,0,0,1,15.82,6.506h32.607v2.455a11.371,11.371,0,0,1-11.371,11.371h-5.191a9.354,9.354,0,0,1-3.295,6.069,33.877,33.877,0,1,1-66.242.059,9.353,9.353,0,0,1-3.367-6.127h-5.19A11.371,11.371,0,0,1,360,40.436V37.981h32.691a33.712,33.712,0,0,1,15.82-6.506A53.314,53.314,0,0,0,411.954,19.942Zm32.088,39.275a9.337,9.337,0,0,1-3.88.839h-3.34a7.713,7.713,0,0,1-.273,1.317,23.837,23.837,0,0,1,.283,3.552h6.5v0.5a30.47,30.47,0,0,1-3,13.139L440.114,79l-6.013-2.9a23.789,23.789,0,0,1-6.02,7.358l4.238,5.313-0.388.309a30.467,30.467,0,0,1-12.142,5.847l-0.483.11-1.526-6.692a23.7,23.7,0,0,1-9.449,0l-1.526,6.692-0.483-.11a30.48,30.48,0,0,1-12.143-5.847l-0.387-.309,4.238-5.313a23.769,23.769,0,0,1-6.02-7.358L386,79l-0.214-.446a30.47,30.47,0,0,1-3-13.139v-0.5h6.5a24.008,24.008,0,0,1,.255-3.37,7.764,7.764,0,0,1-.329-1.5h-3.341a9.334,9.334,0,0,1-3.8-.8A31.527,31.527,0,1,0,444.042,59.217Zm-8.278,3.926a7.755,7.755,0,0,1-1.151,1.47l-0.014.014c0,0.141,0,.282,0,0.424A21.558,21.558,0,0,1,413.147,86.6h-0.174a20.254,20.254,0,0,1-4.066-.4,21.567,21.567,0,0,1-17.4-21.148q0-.172,0-0.343l-0.1-.1a7.693,7.693,0,0,1-1.076-1.348q-0.069.882-.07,1.781l0.022,0.868h-6.512a29.508,29.508,0,0,0,2.686,11.767l5.991-2.886,0.218,0.436A22.784,22.784,0,0,0,399.03,83l0.394,0.308-4.237,5.313a29.495,29.495,0,0,0,10.874,5.236l1.524-6.682,0.483,0.11a22.668,22.668,0,0,0,9.975,0l0.483-.11,1.524,6.682a29.495,29.495,0,0,0,10.874-5.236L426.687,83.3,427.081,83a22.791,22.791,0,0,0,6.357-7.767l0.218-.436,5.991,2.886a29.484,29.484,0,0,0,2.685-11.767H435.82l0.022-.868Q435.842,64.085,435.764,63.143ZM417.447,67.1H408.5a43.639,43.639,0,0,1-6.7,14.02,20.42,20.42,0,0,0,7.724,3.3,19.757,19.757,0,0,0,3.535.317h0.069a19.44,19.44,0,0,0,11.022-3.621A43.652,43.652,0,0,1,417.447,67.1Zm7.107,11.363c0.366,0.555.754,1.111,1.165,1.662q0.633-.533,1.221-1.117Zm-23.18.023-2.218.506q0.545,0.544,1.133,1.045Q400.861,79.265,401.374,78.487ZM431.629,71.6l-9.7,2.213a40.227,40.227,0,0,0,2.061,3.771l3.54,0.808A19.684,19.684,0,0,0,431.629,71.6Zm-37.14.021a19.692,19.692,0,0,0,4.075,6.756l3.373-.77a40.393,40.393,0,0,0,2.083-3.81ZM432.724,66a7.721,7.721,0,0,1-3.572.876h-4.746l-4.059,3.2c0.341,0.923.76,1.958,1.266,3.06L431.9,70.788A19.625,19.625,0,0,0,432.724,66Zm-39.335.044a19.588,19.588,0,0,0,.832,4.765l10.117,2.309c0.511-1.116.934-2.163,1.277-3.094l-4-3.149h-4.745A7.726,7.726,0,0,1,393.389,66.044Zm26.7,3.306,3.139-2.474h-3.79l-0.02.226h-0.043C419.534,67.677,419.768,68.444,420.085,69.349Zm-13.451-2.474H402.8l3.072,2.422C406.226,68.292,406.473,67.46,406.634,66.875Zm28.684-6.819H420.673a45.551,45.551,0,0,0-1.085,5.329h9.564A6.231,6.231,0,0,0,435.318,60.055Zm-44.61,0a6.233,6.233,0,0,0,6.167,5.329h9.648a45.551,45.551,0,0,0-1.085-5.329h-14.73ZM412.085,46V27.391C409.752,34.537,405.857,41.947,402,46.5a53.657,53.657,0,0,1,6.451,18.66h3.633V50.982A2.675,2.675,0,0,1,412.085,46Zm1.941,0a2.675,2.675,0,0,1,0,4.986V65.159h3.633A53.666,53.666,0,0,1,424.11,46.5c-3.856-4.552-7.752-11.962-10.084-19.108V46Zm33.614,5.811H433.3a30.632,30.632,0,0,1-11.726,6.44h18.584A7.56,7.56,0,0,0,447.64,51.807Zm-54.833,0H378.386a7.562,7.562,0,0,0,7.478,6.44h18.669A30.617,30.617,0,0,1,392.807,51.807ZM439.13,40.224h-5.5a23.671,23.671,0,0,1-8.715,8.893L424.9,49.1a51.7,51.7,0,0,0-2.926,6.73A28.577,28.577,0,0,0,439.13,40.224Zm-46.647,0h-5.5a28.581,28.581,0,0,0,17.157,15.6,51.518,51.518,0,0,0-2.9-6.689A23.672,23.672,0,0,1,392.483,40.224Zm-7.887,0H362.243v0.212a9.127,9.127,0,0,0,9.128,9.128h19.14A30.7,30.7,0,0,1,384.6,40.224Zm56.918,0a30.7,30.7,0,0,1-5.914,9.34h19.056a9.128,9.128,0,0,0,9.128-9.128V40.224h-22.27Zm-34.128-6.191A31.358,31.358,0,0,0,394.6,39.5a21.471,21.471,0,0,0,5.5,6.237A49.843,49.843,0,0,0,407.386,34.034Zm11.339,0a49.835,49.835,0,0,0,7.293,11.7,21.471,21.471,0,0,0,5.5-6.237A31.358,31.358,0,0,0,418.725,34.034Z" transform="translate(-360 -19)"/>
  <path id="Capa_86" data-name="Capa 86" class="cls-3" d="M390.708,64.786l-0.37-1.521a10.4,10.4,0,0,1-.8-1.711c-0.249-.773-1.336,2.335-1.889,2.27s-5.4,0-5.4,0,0.456,8.329,1.2,10.476,2.18,5.368,2.18,5.368,6.019,8.817,10.8,11.517c0,0,5.957,4.685,16.626,4.62s19.951-4.411,24.971-12.8,5.622-12.884,5.865-20.284l-7.351-1.347a7.663,7.663,0,0,1-.786,1.77l-0.436,3.475s-1.388,7.7-3.689,10.494-5.207,7.114-11.282,8.638-13.12,1.123-16.327-.309-10.726-8.129-11.648-11.46a85.67,85.67,0,0,1-1.664-9.195" transform="translate(-360 -19)"/>
  <path id="Capa_87" data-name="Capa 87" class="cls-3" d="M414.232,73.706v-1.1a3.011,3.011,0,0,0-.033-0.5,0.459,0.459,0,0,0-.157-0.29,0.726,0.726,0,0,0-.335-0.138,3.221,3.221,0,0,0-.548-0.038,3.393,3.393,0,0,0-.57.038,0.686,0.686,0,0,0-.335.145,0.5,0.5,0,0,0-.157.3,2.893,2.893,0,0,0-.033.48v7.276a2.4,2.4,0,0,0,.044.5,0.551,0.551,0,0,0,.168.305,0.711,0.711,0,0,0,.358.145,4.114,4.114,0,0,0,.637.038c0.224,0,.428-0.005.615-0.015a2.658,2.658,0,0,0,.413-0.046V75.277h2.415v7q-0.314.046-1.207,0.1t-2.1.053a17.625,17.625,0,0,1-2-.091,2.835,2.835,0,0,1-1.2-.366,1.337,1.337,0,0,1-.57-0.778,4.853,4.853,0,0,1-.145-1.312V72.607a4.606,4.606,0,0,1,.156-1.327,1.372,1.372,0,0,1,.57-0.771,2.65,2.65,0,0,1,1.129-.351,16.062,16.062,0,0,1,1.811-.084,15.189,15.189,0,0,1,1.766.084,2.525,2.525,0,0,1,1.1.351,1.333,1.333,0,0,1,.548.763,4.952,4.952,0,0,1,.145,1.335v1.1h-2.482Z" transform="translate(-360 -19)"/>
  <g id="Capa_91" data-name="Capa 91">
    <path id="Capa_89" data-name="Capa 89" class="cls-5" d="M532.8,82.884a3.585,3.585,0,0,1-1.74-.422,3.12,3.12,0,0,1-1.217-1.167,3.412,3.412,0,0,1,0-3.361,3.144,3.144,0,0,1,1.221-1.167,3.585,3.585,0,0,1,1.74-.422,3.623,3.623,0,0,1,1.426.273,2.91,2.91,0,0,1,1.09.79l-0.763.717a2.224,2.224,0,0,0-1.7-.745,2.379,2.379,0,0,0-1.171.286,2.058,2.058,0,0,0-.809.795,2.44,2.44,0,0,0,0,2.307,2.059,2.059,0,0,0,.809.795,2.379,2.379,0,0,0,1.171.286,2.212,2.212,0,0,0,1.7-.754l0.763,0.727a2.9,2.9,0,0,1-1.094.79A3.666,3.666,0,0,1,532.8,82.884Zm10.13,0a3.628,3.628,0,0,1-1.753-.422,3.119,3.119,0,0,1-1.226-1.172,3.372,3.372,0,0,1,0-3.352,3.119,3.119,0,0,1,1.226-1.172,3.849,3.849,0,0,1,3.506,0,3.14,3.14,0,0,1,1.227,1.167,3.4,3.4,0,0,1,0,3.361,3.14,3.14,0,0,1-1.227,1.167A3.628,3.628,0,0,1,542.928,82.884Zm-19.6-6.449h1.18v6.359h-1.18V76.435Zm-14.6,5.369v0.99h-4.769V76.435H508.6v0.99h-3.461v1.653h3.07V80.05h-3.07V81.8h3.588Zm8.885,0.99-1.726-2.416-1.708,2.416h-1.344l2.362-3.243-2.235-3.116h1.336l1.626,2.262,1.607-2.262h1.281l-2.225,3.07,2.389,3.288h-1.363Zm-20.121,0-0.009-4.215-2.09,3.488H494.86l-2.089-3.434v4.16h-1.126V76.435h0.972l2.525,4.215,2.48-4.215h0.972l0.009,6.359h-1.117Zm45.442-.945a2.3,2.3,0,0,0,1.145-.286,2.071,2.071,0,0,0,.8-0.8,2.414,2.414,0,0,0,0-2.3,2.071,2.071,0,0,0-.8-0.8,2.433,2.433,0,0,0-2.29,0,2.071,2.071,0,0,0-.8.8,2.421,2.421,0,0,0,0,2.3,2.071,2.071,0,0,0,.8.8A2.3,2.3,0,0,0,542.928,81.849Zm-73.473-22V58.392a3.661,3.661,0,0,0-.048-0.659,0.6,0.6,0,0,0-.224-0.385,1.1,1.1,0,0,0-.48-0.182,4.972,4.972,0,0,0-.785-0.051,5.227,5.227,0,0,0-.817.051,1.015,1.015,0,0,0-.48.193,0.643,0.643,0,0,0-.224.4,3.524,3.524,0,0,0-.048.639v9.669a2.887,2.887,0,0,0,.064.669,0.718,0.718,0,0,0,.24.405,1.057,1.057,0,0,0,.512.193,6.42,6.42,0,0,0,.913.051q0.48,0,.881-0.02a4.139,4.139,0,0,0,.592-0.061V61.94h3.459v9.3q-0.448.061-1.729,0.132t-3.011.071a27.214,27.214,0,0,1-2.866-.122,4.272,4.272,0,0,1-1.713-.487,1.789,1.789,0,0,1-.817-1.034,6.006,6.006,0,0,1-.208-1.743V58.392a5.673,5.673,0,0,1,.224-1.764,1.831,1.831,0,0,1,.817-1.024,4.012,4.012,0,0,1,1.617-.466,24.8,24.8,0,0,1,2.594-.111,23.48,23.48,0,0,1,2.53.111,3.815,3.815,0,0,1,1.569.466,1.779,1.779,0,0,1,.785,1.014,6.073,6.073,0,0,1,.208,1.774v1.459h-3.555Zm70.392,2.169V58.392a3.661,3.661,0,0,0-.048-0.659,0.6,0.6,0,0,0-.224-0.385,1.09,1.09,0,0,0-.48-0.182,4.972,4.972,0,0,0-.785-0.051,5.213,5.213,0,0,0-.816.051,1.023,1.023,0,0,0-.481.193,0.643,0.643,0,0,0-.224.4,3.524,3.524,0,0,0-.048.639v9.669a3.809,3.809,0,0,0,.048.679,0.643,0.643,0,0,0,.224.4,1.023,1.023,0,0,0,.481.193,5.164,5.164,0,0,0,.816.051,4.924,4.924,0,0,0,.785-0.051,1.015,1.015,0,0,0,.48-0.193,0.638,0.638,0,0,0,.224-0.4,3.809,3.809,0,0,0,.048-0.679v-3.71H543.4v3.71a6.27,6.27,0,0,1-.208,1.8,1.736,1.736,0,0,1-.785,1.014,3.919,3.919,0,0,1-1.569.456,23.362,23.362,0,0,1-2.53.112,25.446,25.446,0,0,1-2.658-.112,3.872,3.872,0,0,1-1.6-.466,1.78,1.78,0,0,1-.785-1.024,6.183,6.183,0,0,1-.208-1.784V58.392a5.7,5.7,0,0,1,.224-1.764A1.835,1.835,0,0,1,534.1,55.6a4.012,4.012,0,0,1,1.617-.466,24.8,24.8,0,0,1,2.594-.111,23.48,23.48,0,0,1,2.53.111,3.815,3.815,0,0,1,1.569.466,1.779,1.779,0,0,1,.785,1.014,6.073,6.073,0,0,1,.208,1.774v3.628h-3.555Zm19.568,6.041a6.183,6.183,0,0,1-.208,1.784,1.765,1.765,0,0,1-.8,1.024,4.007,4.007,0,0,1-1.617.466,31.681,31.681,0,0,1-5.316,0,3.877,3.877,0,0,1-1.6-.466,1.782,1.782,0,0,1-.784-1.024,6.183,6.183,0,0,1-.208-1.784V58.392a6.073,6.073,0,0,1,.208-1.774,1.781,1.781,0,0,1,.784-1.014,3.881,3.881,0,0,1,1.6-.466,31.794,31.794,0,0,1,5.316,0,4.012,4.012,0,0,1,1.617.466,1.764,1.764,0,0,1,.8,1.014,6.073,6.073,0,0,1,.208,1.774v9.669Zm12.2-7.643V58.432a3.989,3.989,0,0,0-.048-0.689,0.637,0.637,0,0,0-.209-0.4,0.991,0.991,0,0,0-.48-0.182,5.548,5.548,0,0,0-.833-0.051,5.485,5.485,0,0,0-.848.051,0.979,0.979,0,0,0-.465.182,0.641,0.641,0,0,0-.208.4,3.989,3.989,0,0,0-.048.689v1.581a1.293,1.293,0,0,0,.16.72,1.779,1.779,0,0,0,.8.476q0.545,0.223,1.457.507t2,0.709q0.8,0.325,1.3.588a2.148,2.148,0,0,1,.736.588,1.821,1.821,0,0,1,.321.77,6.508,6.508,0,0,1,.08,1.115v2.575a6.218,6.218,0,0,1-.208,1.784,1.784,1.784,0,0,1-.785,1.024,3.872,3.872,0,0,1-1.6.466,25.481,25.481,0,0,1-2.659.112,23.742,23.742,0,0,1-2.562-.112,3.929,3.929,0,0,1-1.569-.456,1.81,1.81,0,0,1-.8-1.014,5.868,5.868,0,0,1-.224-1.8V64.879h3.587v3.183a3.809,3.809,0,0,0,.048.679,0.682,0.682,0,0,0,.208.4,0.915,0.915,0,0,0,.465.193,5.172,5.172,0,0,0,.816.051,2.2,2.2,0,0,0,1.3-.243,1.48,1.48,0,0,0,.273-1.074V65.65a2.457,2.457,0,0,0-.128-0.933,1.377,1.377,0,0,0-.737-0.548c-0.214-.094-0.48-0.2-0.8-0.314s-0.661-.236-1.024-0.365-0.732-.26-1.105-0.4-0.71-.264-1.009-0.385a7.533,7.533,0,0,1-1.073-.538,2.033,2.033,0,0,1-.608-0.557,1.7,1.7,0,0,1-.273-0.689,6.026,6.026,0,0,1-.064-0.953V58.432A6.218,6.218,0,0,1,565,56.649a1.846,1.846,0,0,1,.769-1.034,3.622,3.622,0,0,1,1.569-.477,31.425,31.425,0,0,1,5.285,0,3.75,3.75,0,0,1,1.585.477A1.822,1.822,0,0,1,575,56.649a6.178,6.178,0,0,1,.209,1.784v1.987h-3.587ZM527.293,71.244H523.61V55.23h3.683V71.244Zm-16.141,0V55.23h7.366v1.926h-3.683v2.372h3.555v1.926h-3.555v9.791h-3.683Zm-9.479,0V67.676h-3.107v3.568H494.98V58.392a6.092,6.092,0,0,1,.208-1.764,1.778,1.778,0,0,1,.784-1.024,3.793,3.793,0,0,1,1.554-.466,23.015,23.015,0,0,1,2.514-.111,23.481,23.481,0,0,1,2.642.122,4.132,4.132,0,0,1,1.633.476,1.837,1.837,0,0,1,.817,1.014,5.606,5.606,0,0,1,.224,1.754V71.244h-3.683Zm-19.119,0h-3.683V55.23h5.252a25.558,25.558,0,0,1,2.658.112,4.007,4.007,0,0,1,1.617.466,1.766,1.766,0,0,1,.8.994,5.6,5.6,0,0,1,.208,1.693v1.683A2.19,2.19,0,0,1,489.2,61.2a1.814,1.814,0,0,1-.545.638,2.286,2.286,0,0,1-.736.355,7.024,7.024,0,0,1-.785.172v0.081a6.4,6.4,0,0,1,.929.212,1.934,1.934,0,0,1,.721.406,1.76,1.76,0,0,1,.464.7,3.151,3.151,0,0,1,.16,1.095v6.385h-3.715v-6.75a1.254,1.254,0,0,0-.256-0.9,1.9,1.9,0,0,0-1.217-.253h-1.665v7.906ZM555.7,58.392a3.661,3.661,0,0,0-.048-0.659,0.6,0.6,0,0,0-.224-0.385,1.1,1.1,0,0,0-.481-0.182,4.949,4.949,0,0,0-.784-0.051,2.289,2.289,0,0,0-1.313.243,1.356,1.356,0,0,0-.289,1.034v9.669a3.8,3.8,0,0,0,.049.679,0.638,0.638,0,0,0,.224.4,1.015,1.015,0,0,0,.48.193,4.915,4.915,0,0,0,.785.051,5.49,5.49,0,0,0,.832-0.051,0.983,0.983,0,0,0,.5-0.2,0.688,0.688,0,0,0,.224-0.405,3.666,3.666,0,0,0,.048-0.659V58.392Zm-55.6-1.277a4.963,4.963,0,0,0-.785.051,1.09,1.09,0,0,0-.48.182,0.6,0.6,0,0,0-.224.385,3.559,3.559,0,0,0-.049.659v7.378h3.107V58.392a2.752,2.752,0,0,0-.064-0.659,0.71,0.71,0,0,0-.224-0.385,1,1,0,0,0-.481-0.182A5.273,5.273,0,0,0,500.1,57.115Zm-17.55,4.378h1.665a2.119,2.119,0,0,0,1.185-.223,0.972,0.972,0,0,0,.288-0.811V58.494a3.185,3.185,0,0,0-.048-0.618,0.663,0.663,0,0,0-.208-0.375,0.941,0.941,0,0,0-.48-0.192,5.555,5.555,0,0,0-.833-0.051h-1.569v4.237Z" transform="translate(-360 -19)"/>
    <path id="Capa_90" data-name="Capa 90" class="cls-2" d="M550.561,80.793h11.586v-1.1H550.561v1.1Zm-63.124-1.1H475.851v1.1h11.586v-1.1Zm63.124-1.171h19.624v-1.1H550.561v1.1Zm-63.124-1.1H467.813v1.1h19.624v-1.1Z" transform="translate(-360 -19)"/>
  </g>
</svg>
